# Blender v2.71 (sub 0) OBJ File: 'pigeon_tower.blend'
# www.blender.org
mtllib pigeon_tower.mtl
o Cylinder
v -17.333454 31.074558 -6.588282
v -18.993904 -14.878154 -8.870249
v 13.809195 -12.811505 -5.589484
v 12.612001 32.966370 -4.302451
v 10.411795 -12.811505 -3.849543
v 9.510566 32.966370 -3.090170
v 10.411793 -12.811505 5.020864
v 9.510565 32.966370 3.090170
v 6.432417 -12.811505 12.197173
v 5.877852 32.966370 8.090171
v -0.006350 -12.811505 14.938277
v -0.000001 32.966370 10.000000
v -6.445115 -12.811505 12.197172
v -5.877853 32.966370 8.090170
v -10.424493 -12.811505 5.020864
v -9.510565 32.966370 3.090171
v -14.764480 -12.811505 6.655927
v -13.472476 32.966370 4.229380
v 9.348661 31.335102 -15.408253
v 10.234438 -14.593530 -21.529219
v -3.992396 31.204830 -10.998267
v 10.980331 40.041603 -9.855352
v -15.402966 39.911335 -1.179451
v -0.430237 32.966370 -0.036536
v -2.211317 39.370178 -5.517402
v -1.922614 41.311695 0.900284
v 12.612001 32.966370 -4.302451
v 12.612001 32.966370 -4.302451
v 13.809195 -12.811505 -5.589484
v 9.510566 32.966370 -3.090170
v 9.510566 32.966370 -3.090170
v 10.411795 -12.811505 -3.849543
v 9.510565 32.966370 3.090170
v 9.510565 32.966370 3.090170
v 10.411793 -12.811505 5.020864
v 5.877852 32.966370 8.090171
v 5.877852 32.966370 8.090171
v 6.432417 -12.811505 12.197173
v -0.000001 32.966370 10.000000
v -0.000001 32.966370 10.000000
v -0.006350 -12.811505 14.938277
v -5.877853 32.966370 8.090170
v -5.877853 32.966370 8.090170
v -6.445115 -12.811505 12.197172
v -9.510565 32.966370 3.090171
v -9.510565 32.966370 3.090171
v -9.510565 32.966370 3.090171
v -10.424493 -12.811505 5.020864
v -13.472476 32.966370 4.229380
v -13.472476 32.966370 4.229380
v -14.764480 -12.811505 6.655927
v 9.348661 31.335102 -15.408253
v 10.234438 -14.593530 -21.529219
v 10.980331 40.041603 -9.855352
v 10.980331 40.041603 -9.855352
v -15.402966 39.911335 -1.179451
v -15.402966 39.911335 -1.179451
v -17.333454 31.074558 -6.588282
v -18.993904 -14.878154 -8.870249
v -1.922614 41.311695 0.900284
v -2.211317 39.370178 -5.517402
v -2.211317 39.370178 -5.517402
v -2.211317 39.370178 -5.517402
vt 0.749667 0.772910
vt 0.827874 0.774601
vt 0.828168 0.918215
vt 0.749556 0.918215
vt 0.435371 0.234477
vt 0.352965 0.851830
vt 0.316036 0.852180
vt 0.377393 0.232203
vt 0.363545 0.189446
vt 0.308547 0.905375
vt 0.278454 0.928533
vt 0.323576 0.186503
vt 0.377569 0.159675
vt 0.307407 0.923388
vt 0.263490 0.944826
vt 0.296272 0.153422
vt 0.212199 0.946641
vt 0.199689 0.153140
vt 0.174222 0.918733
vt 0.124711 0.158937
vt 0.184191 0.170611
vt 0.217399 0.934127
vt 0.171702 0.911998
vt 0.125282 0.170805
vt 0.119889 0.263797
vt 0.160194 0.855691
vt 0.120142 0.864819
vt 0.076282 0.253965
vt 0.945454 0.051323
vt 0.918111 0.761538
vt 0.787586 0.965346
vt 0.684440 0.794076
vt 0.657171 0.042392
vt 0.930598 0.310438
vt 0.919086 0.749566
vt 0.786610 0.768475
vt 0.666850 0.784452
vt 0.647233 0.305016
vt 0.687564 0.802500
vt 0.661713 0.042080
vt 0.961018 0.039073
vt 0.911279 0.776291
vt 0.787956 0.928199
vt 0.745367 0.854660
vt 0.822682 0.773387
vt 0.814894 0.851992
vt 0.712934 0.856195
vt 0.692941 0.788261
vt 0.857158 0.762755
vt 0.878974 0.829923
vt 0.714932 0.858545
vt 0.698268 0.793019
vt 0.854907 0.769589
vt 0.873315 0.834395
vt 0.744135 0.764053
vt 0.820746 0.767383
vt 0.821035 0.908795
vt 0.744026 0.907130
vt 0.679177 0.790527
vt 0.693527 0.831182
vt 0.904172 0.781894
vt 0.875552 0.824198
vt 0.233381 0.757449
vt 0.141704 0.732326
vt 0.233381 0.564780
vt 0.709382 0.860580
vt 0.795887 0.781205
vt 0.887564 0.806328
vn 0.234800 0.651800 0.721100
vn 0.234900 0.651800 0.721100
vn 0.221600 0.650700 0.726300
vn 0.413600 -0.010900 0.910400
vn 0.999800 0.019700 0.000000
vn 0.846900 0.048400 0.529500
vn 0.351700 0.094100 0.931400
vn -0.351700 0.094200 0.931400
vn -0.846900 0.048600 0.529500
vn 0.316700 0.037500 0.947800
vn -0.955900 0.029200 0.292300
vn -0.358000 0.088000 -0.929600
vn -0.315800 0.331200 -0.889100
vn -0.320700 0.336200 -0.885500
vn -0.327400 0.332600 -0.884400
vn 0.966900 0.039300 -0.252100
vn 0.379300 0.781400 0.495500
vn 0.248800 0.935000 0.252500
vn 0.016900 0.738700 0.673900
vn -0.262700 0.562500 -0.784000
vn -0.273800 0.564600 -0.778600
vn -0.251500 0.560300 -0.789100
vn 0.248200 0.652800 0.715700
vn 0.571300 0.817500 -0.072900
vn 0.559100 0.811100 0.171700
vn -0.604400 0.664800 0.439100
vn -0.412000 0.698900 0.584600
vn 0.504100 0.820100 -0.270800
vn -0.750900 0.640700 -0.160100
usemtl None
s 1
f 25/1/1 24/2/2 27/3/3 22/4/3
f 3/5/4 4/6/4 6/7/4 5/8/4
f 32/9/5 30/10/5 8/11/5 7/12/5
f 35/13/6 33/14/6 10/15/6 9/16/6
f 38/16/7 36/15/7 12/17/7 11/18/7
f 41/18/8 39/17/8 14/19/8 13/20/8
f 44/21/9 42/22/9 16/23/9 15/24/9
f 48/25/10 45/26/10 18/27/10 51/28/10
f 17/29/11 50/30/11 23/31/11 58/32/11 59/33/11
f 2/34/12 1/35/13 21/36/14 19/37/15 20/38/12
f 28/39/16 29/40/16 53/41/16 52/42/16 54/43/16
f 37/44/17 26/45/18 40/46/19
f 21/47/14 61/48/20 55/49/21 19/50/15
f 1/51/13 56/52/22 61/53/20 21/54/14
f 57/55/23 49/56/23 24/57/2 25/58/1
f 31/59/24 26/45/18 34/60/25
f 26/45/18 46/61/26 43/62/27
f 62/63/28 26/64/18 31/65/24
f 26/45/18 43/62/27 40/46/19
f 47/66/29 60/67/29 63/68/29
f 26/45/18 37/44/17 34/60/25
