# Blender v2.71 (sub 0) OBJ File: 'shot_tower.blend'
# www.blender.org
mtllib shot_tower.mtl
o Cube
v 7.074112 -6.928045 -7.074111
v 7.074112 -6.928045 7.074112
v -7.074112 -6.928045 7.074111
v -7.074109 -6.928045 -7.074114
v 3.697918 -0.037777 -3.697915
v 3.697914 -0.037777 3.697919
v -3.697918 -0.037777 3.697915
v -3.697916 -0.037777 -3.697917
v 1.813788 43.207561 -1.813786
v 1.813786 43.207561 1.813788
v -1.813788 43.207561 1.813787
v -1.813787 43.207561 -1.813787
vt 0.544928 0.963484
vt 0.344928 0.963500
vt 0.344399 0.850820
vt 0.544399 0.850804
vt 0.597035 0.038619
vt 0.939864 0.041639
vt 0.695229 0.966024
vt 0.460642 0.996906
vt 0.598822 -0.000015
vt 0.578927 0.034617
vt 0.040785 0.039695
vt 0.043354 0.004065
vt 0.962885 0.007038
vt 0.939083 0.041670
vt 0.596254 0.035614
vt 0.955854 0.005994
vt 0.587885 -0.001059
vt 0.040004 0.038714
vt 0.046479 0.002072
vt 0.601947 -0.000996
vt 0.585958 0.035661
vt 0.544218 0.812171
vt 0.475828 0.850810
vt 0.475647 0.812177
vt 0.696401 0.966562
vt 0.463767 0.996431
vt 0.463424 0.997476
vt 0.139947 0.970687
vt 0.461244 0.997970
vt 0.138767 0.971159
vn 0.000000 -1.000000 -0.000000
vn -0.999100 0.043500 -0.000000
vn 0.898000 0.440000 0.000000
vn -0.000000 0.440000 0.898000
vn -0.898000 0.440000 -0.000000
vn 0.000000 0.440000 -0.898000
vn 0.000000 1.000000 0.000000
vn -0.000000 0.043500 0.999100
vn 0.000000 0.043500 -0.999100
vn 0.999100 0.043500 0.000000
usemtl Material
s off
f 1/1/1 2/2/1 3/3/1 4/4/1
f 8/5/2 7/6/2 11/7/2 12/8/2
f 1/9/3 5/10/3 6/11/3 2/12/3
f 2/13/4 6/14/4 7/15/4 3/9/4
f 3/16/5 7/6/5 8/5/5 4/17/5
f 5/18/6 1/19/6 4/20/6 8/21/6
f 9/22/7 12/4/7 11/23/7 10/24/7
f 7/15/8 6/14/8 10/25/8 11/26/8
f 5/18/9 8/21/9 12/27/9 9/28/9
f 6/11/10 5/10/10 9/29/10 10/30/10
